REM DIRINDEX 1\2,1\3,1\4,1\5
REM DIRNAME folder01,folder02,folder03,folder04,folder05
TITLE ""
FILE "P1Q_j_1677-1690.mp3" MP3
  TRACK 01 AUDIO
    TITLE "3:cjc005_0380"
    INDEX 01 00:00:00
  TRACK 02 AUDIO
    TITLE "0:"
    INDEX 01 00:01:26
  TRACK 03 AUDIO
    TITLE "4:cjc005_0381"
    INDEX 01 00:01:54
  TRACK 04 AUDIO
    TITLE "0:"
    INDEX 01 00:02:65
  TRACK 05 AUDIO
    TITLE "5:cjc005_0382"
    INDEX 01 00:03:14
  TRACK 06 AUDIO
    TITLE "0:"
    INDEX 01 00:07:49
  TRACK 07 AUDIO
    TITLE "3:cjc005_0383"
    INDEX 01 00:08:32
  TRACK 08 AUDIO
    TITLE "0:"
    INDEX 01 00:09:51
  TRACK 09 AUDIO
    TITLE "4:cjc005_0384"
    INDEX 01 00:10:06
  TRACK 10 AUDIO
    TITLE "0:"
    INDEX 01 00:11:05
  TRACK 11 AUDIO
    TITLE "5:cjc005_0385"
    INDEX 01 00:11:31
  TRACK 12 AUDIO
    TITLE "0:"
    INDEX 01 00:15:56
  TRACK 13 AUDIO
    TITLE "3:cjc005_0386"
    INDEX 01 00:16:40
  TRACK 14 AUDIO
    TITLE "0:"
    INDEX 01 00:18:05
  TRACK 15 AUDIO
    TITLE "4:cjc005_0387"
    INDEX 01 00:18:31
  TRACK 16 AUDIO
    TITLE "0:"
    INDEX 01 00:20:10
  TRACK 17 AUDIO
    TITLE "5:cjc005_0388"
    INDEX 01 00:20:36
  TRACK 18 AUDIO
    TITLE "0:"
    INDEX 01 00:24:29
  TRACK 19 AUDIO
    TITLE "3:cjc005_0389"
    INDEX 01 00:25:07
  TRACK 20 AUDIO
    TITLE "0:"
    INDEX 01 00:26:56
  TRACK 21 AUDIO
    TITLE "4:cjc005_0390"
    INDEX 01 00:27:04
  TRACK 22 AUDIO
    TITLE "0:"
    INDEX 01 00:28:41
  TRACK 23 AUDIO
    TITLE "5:cjc005_0391"
    INDEX 01 00:28:60
  TRACK 24 AUDIO
    TITLE "0:"
    INDEX 01 00:32:31
  TRACK 25 AUDIO
    TITLE "3:cjc005_0392"
    INDEX 01 00:33:15
  TRACK 26 AUDIO
    TITLE "0:"
    INDEX 01 00:34:32
  TRACK 27 AUDIO
    TITLE "4:cjc005_0393"
    INDEX 01 00:34:65
  TRACK 28 AUDIO
    TITLE "0:"
    INDEX 01 00:36:23
  TRACK 29 AUDIO
    TITLE "5:cjc005_0394"
    INDEX 01 00:36:44
  TRACK 30 AUDIO
    TITLE "0:"
    INDEX 01 00:41:02
  TRACK 31 AUDIO
    TITLE "3:cjc005_0395"
    INDEX 01 00:41:55
  TRACK 32 AUDIO
    TITLE "0:"
    INDEX 01 00:43:11
  TRACK 33 AUDIO
    TITLE "4:cjc005_0396"
    INDEX 01 00:43:37
  TRACK 34 AUDIO
    TITLE "0:"
    INDEX 01 00:44:56
  TRACK 35 AUDIO
    TITLE "5:cjc005_0397"
    INDEX 01 00:45:10
  TRACK 36 AUDIO
    TITLE "0:"
    INDEX 01 00:49:02
  TRACK 37 AUDIO
    TITLE "3:cjc005_0398"
    INDEX 01 00:49:70
  TRACK 38 AUDIO
    TITLE "0:"
    INDEX 01 00:51:16
  TRACK 39 AUDIO
    TITLE "4:cjc005_0399"
    INDEX 01 00:51:46
  TRACK 40 AUDIO
    TITLE "0:"
    INDEX 01 00:53:02
  TRACK 41 AUDIO
    TITLE "5:cjc005_0400"
    INDEX 01 00:53:27
  TRACK 42 AUDIO
    TITLE "0:"
    INDEX 01 00:58:46
  TRACK 43 AUDIO
    TITLE "3:cjc005_0401"
    INDEX 01 00:59:34
  TRACK 44 AUDIO
    TITLE "0:"
    INDEX 01 01:00:49
  TRACK 45 AUDIO
    TITLE "4:cjc005_0402"
    INDEX 01 01:01:05
  TRACK 46 AUDIO
    TITLE "0:"
    INDEX 01 01:02:26
  TRACK 47 AUDIO
    TITLE "5:cjc005_0403"
    INDEX 01 01:02:57
  TRACK 48 AUDIO
    TITLE "0:"
    INDEX 01 01:07:35
  TRACK 49 AUDIO
    TITLE "3:cjc005_0404"
    INDEX 01 01:08:23
  TRACK 50 AUDIO
    TITLE "0:"
    INDEX 01 01:09:32
  TRACK 51 AUDIO
    TITLE "4:cjc005_0405"
    INDEX 01 01:09:59
  TRACK 52 AUDIO
    TITLE "0:"
    INDEX 01 01:11:15
  TRACK 53 AUDIO
    TITLE "5:cjc005_0406"
    INDEX 01 01:11:41
  TRACK 54 AUDIO
    TITLE "0:"
    INDEX 01 01:15:58
  TRACK 55 AUDIO
    TITLE "3:cjc005_0407"
    INDEX 01 01:16:40
  TRACK 56 AUDIO
    TITLE "0:"
    INDEX 01 01:17:73
  TRACK 57 AUDIO
    TITLE "4:cjc005_0408"
    INDEX 01 01:18:31
  TRACK 58 AUDIO
    TITLE "0:"
    INDEX 01 01:20:34
  TRACK 59 AUDIO
    TITLE "5:cjc005_0409"
    INDEX 01 01:20:57
  TRACK 60 AUDIO
    TITLE "0:"
    INDEX 01 01:23:71
  TRACK 61 AUDIO
    TITLE "3:cjc005_0410"
    INDEX 01 01:24:51
  TRACK 62 AUDIO
    TITLE "0:"
    INDEX 01 01:26:50
  TRACK 63 AUDIO
    TITLE "4:cjc005_0411"
    INDEX 01 01:27:03
  TRACK 64 AUDIO
    TITLE "0:"
    INDEX 01 01:28:31
  TRACK 65 AUDIO
    TITLE "5:cjc005_0412"
    INDEX 01 01:28:61
  TRACK 66 AUDIO
    TITLE "0:"
    INDEX 01 01:32:74
  TRACK 67 AUDIO
    TITLE "3:cjc005_0413"
    INDEX 01 01:33:56
  TRACK 68 AUDIO
    TITLE "0:"
    INDEX 01 01:34:71
  TRACK 69 AUDIO
    TITLE "4:cjc005_0414"
    INDEX 01 01:35:27
  TRACK 70 AUDIO
    TITLE "0:"
    INDEX 01 01:36:47
  TRACK 71 AUDIO
    TITLE "5:cjc005_0415"
    INDEX 01 01:36:70
  TRACK 72 AUDIO
    TITLE "0:"
    INDEX 01 01:40:05
  TRACK 73 AUDIO
    TITLE "3:cjc005_0416"
    INDEX 01 01:40:58
  TRACK 74 AUDIO
    TITLE "0:"
    INDEX 01 01:42:20
  TRACK 75 AUDIO
    TITLE "4:cjc005_0417"
    INDEX 01 01:42:49
  TRACK 76 AUDIO
    TITLE "0:"
    INDEX 01 01:44:07
  TRACK 77 AUDIO
    TITLE "5:cjc005_0418"
    INDEX 01 01:44:26
  TRACK 78 AUDIO
    TITLE "0:"
    INDEX 01 01:47:56
  TRACK 79 AUDIO
    TITLE "3:cjc005_0419"
    INDEX 01 01:48:40
  TRACK 80 AUDIO
    TITLE "0:"
    INDEX 01 01:49:67
  TRACK 81 AUDIO
    TITLE "4:cjc005_0420"
    INDEX 01 01:50:23
  TRACK 82 AUDIO
    TITLE "0:"
    INDEX 01 01:52:22
  TRACK 83 AUDIO
    TITLE "5:cjc005_0421"
    INDEX 01 01:52:49
  TRACK 84 AUDIO
    TITLE "0:"
    INDEX 01 01:55:40
